<svg id="Layer_1" data-name="Layer 1" xmlns="http://www.w3.org/2000/svg" viewBox="0 0 90.68 32"><defs><style>.cls-1{fill:#ff821d;}</style></defs><title>rabbitco-illustration</title><g id="_Group_" data-name="&lt;Group&gt;"><g id="_Group_2" data-name="&lt;Group&gt;"><g id="_Group_3" data-name="&lt;Group&gt;"><rect id="_Path_" data-name="&lt;Path&gt;" class="cls-1" y="29.54" width="90.68" height="2.46"/><path id="_Compound_Path_" data-name="&lt;Compound Path&gt;" class="cls-1" d="M20,7.9a9.27,9.27,0,0,0-9.43,9.31,9,9,0,0,0,8.71,9.2,6,6,0,0,0,4-1.33l1.17-.85v1.68h4.81V17.59C29.25,12,25.35,7.9,20,7.9m-.07,13.67a4.44,4.44,0,1,1,4.43-4.44,4.44,4.44,0,0,1-4.43,4.44"/><path id="_Compound_Path_2" data-name="&lt;Compound Path&gt;" class="cls-1" d="M41.59,7.9a7.12,7.12,0,0,0-4,1.21l-1.21.76V0H31.64V16.61c0,5.68,3.9,9.8,9.27,9.8a9.29,9.29,0,0,0,9.42-9.35A9.08,9.08,0,0,0,41.59,7.9M41,21.58a4.44,4.44,0,1,1,4.44-4.44A4.44,4.44,0,0,1,41,21.58"/><path id="_Compound_Path_3" data-name="&lt;Compound Path&gt;" class="cls-1" d="M62.29,7.9a7.1,7.1,0,0,0-4,1.21l-1.21.76V0H52.34V16.61c0,5.68,3.9,9.8,9.27,9.8A9.29,9.29,0,0,0,71,17.06,9.08,9.08,0,0,0,62.29,7.9m-.6,13.67a4.44,4.44,0,1,1,4.44-4.44,4.43,4.43,0,0,1-4.44,4.44"/><rect id="_Path_2" data-name="&lt;Path&gt;" class="cls-1" x="73.35" y="7.9" width="4.92" height="18.01"/><path id="_Path_3" data-name="&lt;Path&gt;" class="cls-1" d="M90.68,12.07V7.9H85.89V0H81.12V19.07c0,3,.56,4.42,2.13,5.61,1.36,1,2.48,1.24,5.44,1.24h2v-4.2H89.22c-2.58,0-3.34-.71-3.34-3.14v-6.5Z"/><path id="_Path_4" data-name="&lt;Path&gt;" class="cls-1" d="M9.27,7.9C3.9,7.9,0,12,0,17.59v8.32H4.8V18.16c0-3.46,1.69-5.52,4.5-5.52H9.6V7.92H9.27"/></g></g></g></svg>