<?xml version="1.0" encoding="utf-8"?>
<!-- Generator: Adobe Illustrator 21.0.0, SVG Export Plug-In . SVG Version: 6.00 Build 0)  -->
<svg version="1.1" id="Layer_1" xmlns="http://www.w3.org/2000/svg" xmlns:xlink="http://www.w3.org/1999/xlink" x="0px" y="0px"
	 viewBox="0 0 1199.5 481.4" style="enable-background:new 0 0 1199.5 481.4;" xml:space="preserve">
<style type="text/css">
	.st0{fill:#4D4D4D;}
	.st1{fill:#F1F1F1;}
	.st2{fill:#CBCBCB;}
	.st3{fill:#989898;}
	.st4{fill:#E5E5E5;}
	.st5{fill:#FFD2AA;}
	.st6{fill:#BA461E;}
	.st7{fill:#F37021;}
	.st8{fill:#B2B2B2;}
	.st9{fill:#231F20;}
	.st10{fill:#302B2C;}
	.st11{fill:#FFFFFF;}
	.st12{fill:#333333;}
	.st13{fill:#E06020;}
	.st14{fill:#FFFFB5;}
	.st15{fill:#FAAF3B;}
	.st16{fill:#808080;}
	.st17{fill:#58595B;}
</style>
<title>speedybiker</title>
<g>
	<circle cx="537.4" cy="422" r="59.4"/>
	<circle class="st0" cx="537.4" cy="422" r="44.6"/>
	<circle class="st1" cx="537.4" cy="422" r="36.2"/>
	<circle class="st2" cx="537.4" cy="422" r="25.6"/>
	<circle class="st3" cx="537.4" cy="422" r="9.6"/>
	<circle cx="194.6" cy="422" r="59.4"/>
	<circle class="st0" cx="194.6" cy="422" r="45.7"/>
	<circle class="st1" cx="194.6" cy="422" r="36.2"/>
	<circle class="st2" cx="194.6" cy="422" r="25.6"/>
	<circle class="st3" cx="194.6" cy="422" r="9.6"/>
	<path class="st4" d="M541.4,416.8c2.7,2.7,2.7,7,0,9.6l0,0c-2.7,2.7-7,2.7-9.6,0l-70.7-70.7c-2.7-2.7-2.7-7,0-9.6l0,0
		c2.7-2.7,7-2.7,9.6,0L541.4,416.8z"/>
	<path class="st5" d="M440.1,198.7l10.2-0.8c0,0,6.3-12.7,21.3-4.4s5.8,17.3-3,18.4s-10.3-1-10.3-1s9.5-10.8-0.3-11.8
		s-10.3,6.6-10.3,6.6l-14.6,0.5L440.1,198.7z"/>
	<path class="st6" d="M382.9,129.6c3,0.3,7-6.8,11.2,61l51,5.4c0,0-13.1,17-10.6,28.1c0,0-52.9-11.7-60.7-21
		S353.6,126.8,382.9,129.6z"/>
	<path class="st7" d="M436.7,210.4c0,0,12.8-22.4,23.4-21.5s13.3,15.8,13.3,15.8c2.9-2.7,6.6-4.4,10.6-5c0,0-7.4,20.4,0,37.5
		c0,0-4.9,1.3-9.7-5.3c0,0-10,13.2,5.3,36.9s22.3,70.2,22.3,70.2s68.4-29.7,97.8,34.9c0,0-50.5-36.1-94.3,0s-24.7,35.7-52.5,44.5
		c0,0,3.3-9.8,7.7-15.2c0,0-17.2,22.2-44.8,22.2s-131.5-1.8-131.5-1.8s-11.4-1.3-11.8-9.2l-175-2.2c0,0-43,16.7,14-54.8
		c0,0,15.3-8.8,2.6-26.3c0,0,5.3-11,32.5-2.6c0,0,9.7-27.6-14-32.9v-4.9h112.3l0.4,5.7c0,0,67.8-11,98.6-5.7
		c0,0-55.6,48.3-9.5,105.1c0,0,14.9,15.9,106.6-0.3c0,0,13.8-8.3,4.9-67.5s17-56.1,17-56.1L436.7,210.4z"/>
	<path d="M351.7,266.7c10,1.1,15.8,28.7-10.8,26.9s-76.9,0.1-76.9,0.1s-31.9-32.9-4.4-57S248.7,255.9,351.7,266.7z"/>
	<path d="M438.8,211.5c0,0,9.5-5.8,13.2,0.3s-4.1,9.7-4.1,9.7S438.4,215.5,438.8,211.5z"/>
	
		<rect x="372.6" y="377.8" transform="matrix(0.4384 -0.8988 0.8988 0.4384 -130.3385 556.2385)" class="st5" width="14.7" height="9.2"/>
	<path class="st4" d="M372.6,387c-1.2,2.1-2,4.3-2.5,6.7c0,0,2.2,4.7,8.7,3.7l2.7-7.4C381.4,390,378.7,390.7,372.6,387z"/>
	<path class="st8" d="M370.8,391.5c0,0,5.5,3,9.5,0.9c0,0,11.5-3.3,17.5,0.4c3.4,2,5.4,5.9,5.1,9.8c0,0-23,5.9-35-2.9
		C367.8,399.9,368.2,392,370.8,391.5z"/>
	
		<rect x="339.7" y="372.7" transform="matrix(0.4384 -0.8988 0.8988 0.4384 -143.7579 524.4966)" class="st5" width="16.2" height="9.2"/>
	<path class="st9" d="M293.1,232.6c0,0-20.6,6.8-4.1,17.5s87.8,16.5,114.4,10.2c0,0-18.4,30.3-18.3,51.6s-10.3,64.6-10.3,64.6
		s10.2,4.7,13.7,9.8c0,0,42.8-112.5,32-133.4s-76.4-28-76.4-28C338.2,229.5,312.9,231.3,293.1,232.6z"/>
	<path class="st10" d="M284.3,222.2c0,0-14.6,15.7,0,28.8s77.1,18.1,104.4,16.1c0,0-23,27-26.3,48s-18.5,54.3-18.5,54.3
		s9.3,6.3,12,11.8c0,0,58.2-96.4,51-118.8s-71-39.9-71-39.9C329.4,226.4,304.1,224.1,284.3,222.2z"/>
	<path class="st5" d="M297.9,202.9c0,0-11.4,13.2-13.6,19.3c0,0,44.3,5.4,51.5,0.5C335.9,222.7,314.2,198.5,297.9,202.9z"/>
	<polygon class="st5" points="390.7,126.1 404.4,109.6 420.8,117.8 403.9,136.8 	"/>
	<path class="st4" d="M503.7,65.6c0,0-0.5,48.4-19.5,55.7c0,0-89.6-29.8-62.6-92.9S491.1,45.9,503.7,65.6z"/>
	<polygon class="st11" points="469.6,44.5 416.5,76.2 421.3,91.2 484,49.6 	"/>
	<polygon class="st11" points="489.1,54.4 427.4,103.1 454.3,128.4 503.7,63.1 	"/>
	<path class="st7" d="M388.5,107.6l68.5,40.9c0,0,31.4-19.4,30.7-28.6c0,0-50.3-16.5-59.3-56.2c-9.5-42.3,77.4,6.5,77.4,6.5
		s11.9-74.3-83.5-69.9C353.8,0.2,388.5,107.6,388.5,107.6z"/>
	<polygon class="st12" points="386.6,100.7 383.8,107 458.1,151.4 460.1,148.5 	"/>
	<path class="st7" d="M379.7,116.5c0,0-16.7-2.6-37.7,11.8s-7.9,29.6-38.2,31.6s-37.5,23-42.8,36.2c0,0,23,5.3,36.8,13.2
		s44.7,15.1,44.7,15.1s22.6-26.9,34.9-33.4c13-6.9,30.8-28,31.8-39.6S420.1,133.6,379.7,116.5z"/>
	<path class="st5" d="M411.1,211.8l10,1.8c0,0,9.3-10.7,21.7,1.1s1.3,18.2-7.5,17.1s-9.8-3.5-9.8-3.5s11.9-8.1,2.7-11.5
		s-11.7,3.9-11.7,3.9l-14.3-3.2L411.1,211.8z"/>
	<path class="st13" d="M372.9,130.6c2.9,1,8.5-4.8-4.4,61.9l48,18c0,0-17,13.2-17.3,24.6c0,0-48.3-24.6-53.5-35.5
		S345.3,120.5,372.9,130.6z"/>
	<path class="st4" d="M340.8,381.2c-1.2,2.1-2,4.3-2.5,6.7c0,0,2.3,4.7,8.7,3.7l2.7-7.4C349.6,384.2,346.9,384.8,340.8,381.2z"/>
	<path class="st8" d="M338.2,387.8c0,0,5.1,3.7,9.3,2c0,0,11.8-2,17.3,2.5c3.2,2.4,4.7,6.4,4,10.4c0,0-23.6,3.2-34.4-6.9
		C334.3,395.7,335.6,388,338.2,387.8z"/>
	<circle cx="424.7" cy="223.9" r="8.8"/>
	<ellipse class="st14" cx="485.6" cy="217.7" rx="9.3" ry="20.8"/>
	<ellipse class="st15" cx="115" cy="341.7" rx="5.7" ry="12.7"/>
	<rect y="283.6" class="st16" width="244.9" height="7.1"/>
	<polygon class="st17" points="229.5,126.5 25.2,126.5 25.2,141.8 9.8,141.8 9.8,283.6 244.9,283.6 244.9,141.8 	"/>
	<rect x="9.8" y="141.8" class="st3" width="15.3" height="141.8"/>
	<path class="st11" d="M81.2,190.1h22.5c0.3,0,0.5,0,0.8,0.1c1.1,0.3,1.7,1.5,1.3,2.6c-0.3,0.8-1,1.4-1.8,1.4H81.7h-0.5
		c0,0.1,0,0.3,0,0.4c0,1.2,0,2.4,0,3.6c0,1.2,0.9,2.2,2.1,2.2c0,0,0.1,0,0.1,0h24.2c0.2,0,0.5,0,0.7,0c1.1,0.2,1.9,1.2,1.7,2.4
		c-0.1,0.8-0.7,1.4-1.5,1.6c-0.3,0.1-0.5,0.1-0.8,0.1H82.1c-1,0-2-0.2-2.9-0.7c-1.5-0.8-2.6-2.3-2.9-4c-0.1-0.4-0.1-0.7-0.1-1.1
		c0-4.4,0-8.8,0-13.2c0-1.2,0.3-2.4,1-3.4c0.9-1.2,2.2-2.1,3.7-2.3c0.4-0.1,0.8-0.1,1.2-0.1h25.6c0.4,0,0.8,0.1,1.2,0.3
		c0.7,0.4,1.1,1.2,1,2.1c-0.1,0.9-0.8,1.6-1.6,1.8c-0.2,0-0.5,0.1-0.7,0.1H83.7c-0.3,0-0.7,0-1,0.1c-0.9,0.2-1.5,1-1.5,1.9
		c0,1.3,0,2.7,0,4C81.2,189.9,81.2,190,81.2,190.1z"/>
	<path class="st11" d="M136.1,194.6l0.3,0.2l12.2,6c0.2,0.1,0.4,0.2,0.5,0.3c0.9,0.6,1.3,1.8,0.8,2.8c-0.5,1.1-1.8,1.6-2.9,1.1
		c0,0,0,0,0,0c-0.5-0.2-0.9-0.5-1.4-0.7l-18.7-9.7c-0.6-0.3-1.1-0.8-1.2-1.5c-0.3-1.1,0.3-2.2,1.4-2.5c0.2,0,0.3-0.1,0.5-0.1h14.7
		c0.4,0,0.8,0,1.2-0.1c1-0.2,1.8-1,2-2.1c0.2-0.8,0.2-1.6,0-2.3c-0.2-0.9-0.9-1.7-1.9-1.9c-0.3-0.1-0.7-0.1-1-0.1
		c-1.1,0-2.3,0-3.4,0h-18c0,0.2,0,0.4,0,0.6c0,2.8,0,5.6,0,8.4c0,3.2,0,6.4,0,9.6c0,0.5-0.1,1.1-0.5,1.5c-0.6,0.8-1.6,1.2-2.6,0.9
		c-0.9-0.3-1.6-1-1.8-2c0-0.2,0-0.5,0-0.7c0-6.6,0-13.1,0-19.7c0-0.3,0-0.7,0.1-1c0.3-1,1.2-1.8,2.3-1.8h24.5c0.9,0,1.7,0.1,2.5,0.3
		c2.3,0.4,4.1,2.2,4.5,4.5c0.4,1.8,0.4,3.6,0,5.4c-0.5,2.3-2.3,4.1-4.7,4.5c-1.2,0.2-2.5,0.3-3.7,0.2H141l-4.3-0.1h-0.4L136.1,194.6
		z"/>
	<path class="st11" d="M162.8,183.9c0,0.3,0,0.5,0,0.7c0,5.9,0,11.7,0,17.6c0,0.2,0,0.4,0,0.6c-0.1,1.3-1.2,2.3-2.6,2.3
		c-1.2-0.1-2.2-1-2.3-2.3c0-0.1,0-0.3,0-0.4c0-6.7,0-13.4,0-20.1c0-0.4,0.1-0.9,0.3-1.3c0.4-0.8,1.2-1.3,2.1-1.3h24.5
		c0.9,0,1.8,0.1,2.7,0.3c2.2,0.5,3.8,2.2,4.3,4.3c0.3,1.3,0.4,2.7,0.3,4c-0.1,0.7-0.2,1.3-0.4,1.9c-0.5,2-2.2,3.6-4.2,4
		c-0.9,0.2-1.9,0.3-2.8,0.3l-6.6-0.1h-0.4v0.1c0.1,0.1,0.2,0.1,0.3,0.2l11,5.4c0.5,0.3,1,0.5,1.5,0.8c1.1,0.5,1.6,1.8,1.1,2.9
		c-0.5,1.1-1.8,1.6-2.9,1.1c-0.1,0-0.1-0.1-0.2-0.1L185,203l-15.2-7.9c-0.5-0.2-1-0.5-1.4-0.7c-1-0.6-1.3-1.8-0.8-2.8
		c0.2-0.3,0.4-0.5,0.7-0.7c0.4-0.2,0.8-0.3,1.2-0.3h11.1c1.2,0,2.3,0,3.5,0c0.4,0,0.8-0.1,1.2-0.1c1-0.2,1.8-1,2-2
		c0.2-0.8,0.2-1.7,0-2.5c-0.2-0.9-0.9-1.6-1.8-1.8c-0.3-0.1-0.7-0.1-1-0.1c-1.2,0-2.5,0-3.7,0L162.8,183.9L162.8,183.9z"/>
	<path class="st11" d="M215.3,204.6h-12.1c-0.3,0-0.5,0-0.8-0.1c-1.1-0.1-1.9-1-1.9-2.1s1-1.9,2.1-1.9c0.2,0,0.5,0,0.7,0h22.3
		c0.3,0,0.6,0,0.8,0c1-0.2,1.8-1.1,1.7-2.1c0.1-1.1,0-2.3,0-3.4c0-0.3,0-0.3-0.3-0.3h-23c-1,0-2-0.2-2.9-0.6c-1.6-0.8-2.8-2.4-3-4.2
		c-0.1-0.4-0.1-0.7-0.1-1.1c0-2.3,0-4.6,0-7c0-0.6,0.2-1.1,0.5-1.5c0.8-1,2.4-1.2,3.4-0.4c0.6,0.5,0.9,1.1,0.9,1.9
		c0,2.1,0,4.3,0,6.4c0,0.2,0,0.4,0,0.5c0.2,1.1,1.1,1.8,2.1,1.9h21.7c0.6,0,0.6,0.1,0.6-0.6c0-2.7,0-5.4,0-8.1
		c0-0.9,0.5-1.8,1.3-2.2c1.2-0.6,2.6-0.2,3.3,0.9c0.1,0.2,0.2,0.3,0.2,0.5c0.1,0.2,0.1,0.5,0.1,0.7c0,5.7,0,11.3,0,17
		c0,1.1-0.3,2.2-0.9,3.2c-0.8,1.3-2.2,2.3-3.8,2.5c-0.5,0.1-0.9,0.1-1.4,0.1L215.3,204.6z"/>
	<path class="st11" d="M54.3,191.3l0.5,0.3l14.4,9.3c0.6,0.3,1,0.9,1.1,1.6c0.2,1.1-0.5,2.2-1.6,2.5c-0.6,0.2-1.3,0.1-1.9-0.3
		l-5.6-3.6l-11-7.1c-0.2-0.2-0.6-0.2-0.8,0c-2.5,1.4-5,2.7-7.6,4l-0.1,0c-0.2,0.1-0.4,0.3-0.3,0.5c0,1.3,0,2.5,0,3.8
		c0,0.3,0,0.6-0.1,0.9c-0.3,1.1-1.3,1.9-2.5,1.8c-1.1-0.1-2-0.9-2.3-1.9c0-0.2,0-0.4,0-0.5c0-6.9,0-13.9,0-20.8c0-1.2,0.8-2.2,2-2.5
		c1.3-0.2,2.6,0.7,2.8,2c0,0.3,0.1,0.6,0.1,0.9c0,3.5,0,6.9,0,10.4v0.5c0.2-0.1,0.3-0.1,0.5-0.2l5.7-3l19.2-10.2
		c0.5-0.3,1.2-0.4,1.8-0.3c0.9,0.2,1.5,0.9,1.7,1.8c0.1,0.9-0.3,1.7-1,2.2l-0.3,0.2L54.9,191L54.3,191.3z"/>
	<path class="st11" d="M151.1,220.4c0,0.6,0,1.2,0,1.8c0,0.4,0.4,0.7,0.8,0.7c0.2,0,0.4,0,0.6,0h9c0.1,0,0.3,0,0.5,0
		c0.4,0,0.7,0.3,0.7,0.7c0.1,0.4-0.2,0.7-0.5,0.9c-0.1,0-0.3,0.1-0.4,0.1h-10.2c-1.2,0-2.3-0.9-2.3-2.2c0-0.1,0-0.1,0-0.2
		c0-1.8,0-3.5,0-5.3c0-1.2,0.9-2.3,2.2-2.3c0.1,0,0.1,0,0.2,0h10.3c0.5,0,0.9,0.3,0.9,0.8c0,0,0,0,0,0c0,0.4-0.3,0.8-0.7,0.8h-9.6
		c-0.2,0-0.4,0-0.5,0c-0.4,0-0.7,0.3-0.7,0.7c0,0.6,0,1.1,0,1.7h0.5h8.3c0.1,0,0.3,0,0.4,0c0.4,0,0.7,0.4,0.7,0.8
		c0,0.4-0.3,0.8-0.7,0.9c-0.1,0-0.3,0-0.4,0h-8.8L151.1,220.4z"/>
	<path class="st11" d="M65.9,220.4c0,0.6,0,1.2,0,1.7c0,0.4,0.3,0.7,0.7,0.7c0.2,0,0.4,0,0.6,0h9.1c0.1,0,0.3,0,0.4,0
		c0.4,0,0.7,0.3,0.7,0.7c0,0.4-0.2,0.8-0.6,0.9c-0.1,0-0.3,0.1-0.5,0H66.3c-1.2,0.1-2.3-0.9-2.4-2.1c0-0.1,0-0.1,0-0.2
		c0-1.8,0-3.5,0-5.3c-0.1-1.2,0.9-2.3,2.1-2.3c0.1,0,0.1,0,0.2,0h10.3c0.4-0.1,0.8,0.2,0.9,0.7c0.1,0.4-0.1,0.9-0.6,1
		c0,0-0.1,0-0.1,0c-0.1,0-0.3,0-0.5,0h-9.2c-0.2,0-0.4,0-0.6,0c-0.4,0.1-0.6,0.4-0.7,0.7c0,0.5,0,1.1,0,1.7h0.5h8.7
		c0.5,0,0.8,0.4,0.8,0.8s-0.4,0.8-0.8,0.8h-9.2V220.4z"/>
	<path class="st11" d="M176.8,224.5h-4.7c-0.1,0-0.3,0-0.4,0c-0.4,0-0.7-0.4-0.8-0.8c0-0.4,0.2-0.8,0.6-0.9c0.1,0,0.3,0,0.5,0h8.7
		c0.1,0,0.3,0,0.5,0c0.2,0,0.3-0.1,0.5-0.1c0.4-0.2,0.7-0.8,0.6-1.3c0-0.5-0.3-0.9-0.7-1c-0.2-0.1-0.4-0.1-0.7-0.1h-7
		c-0.3,0-0.7,0-1-0.1c-1-0.1-1.9-0.9-2-1.9c-0.1-0.6-0.1-1.2,0-1.8c0.1-1,1-1.8,2-1.9c0.3,0,0.6-0.1,0.9-0.1h9.2
		c0.2,0,0.4,0,0.6,0.1c0.4,0.1,0.6,0.5,0.5,0.9c-0.1,0.4-0.4,0.7-0.7,0.7h-9c-0.3,0-0.5,0-0.8,0c-0.4,0-0.7,0.3-0.8,0.8
		c-0.1,0.3-0.1,0.6,0,0.9c0.1,0.4,0.4,0.7,0.8,0.7c0.2,0,0.4,0.1,0.6,0.1h7c0.3,0,0.7,0,1,0.1c1,0.1,1.8,0.9,1.9,1.9
		c0.1,0.6,0.1,1.1,0,1.7c-0.1,1.2-1.1,2-2.3,2.1c-0.3,0-0.5,0-0.8,0L176.8,224.5z"/>
	<path class="st11" d="M198.3,224.5h-4.7c-0.1,0-0.3,0-0.4,0c-0.4,0-0.7-0.4-0.8-0.8c0-0.4,0.3-0.8,0.7-0.9c0.1,0,0.3,0,0.4,0h8.7
		c0.1,0,0.3,0,0.5,0c0.2,0,0.3-0.1,0.5-0.1c0.5-0.3,0.6-0.8,0.5-1.3c0-0.4-0.3-0.8-0.7-0.9c-0.2-0.1-0.4-0.1-0.7-0.1h-7.1
		c-0.4,0-0.9,0-1.3-0.1c-0.8-0.2-1.5-0.8-1.7-1.7c-0.2-0.7-0.2-1.5,0-2.2c0.2-1,1-1.7,2-1.7c0.3,0,0.6-0.1,0.9-0.1h9.2
		c0.1,0,0.3,0,0.5,0c0.4,0.1,0.7,0.5,0.7,0.9c-0.1,0.4-0.4,0.7-0.8,0.7h-8.9c-0.3,0-0.5,0-0.8,0.1c-0.4,0-0.7,0.3-0.8,0.8
		c0,0.2,0,0.4,0,0.6c0,0.5,0.4,1,0.9,1c0.2,0,0.4,0,0.5,0h7c0.3,0,0.7,0,1,0.1c1,0.1,1.8,0.9,1.9,1.9c0.1,0.6,0.1,1.2,0,1.7
		c-0.1,1.2-1.1,2-2.3,2c-0.3,0-0.5,0-0.8,0L198.3,224.5z"/>
	<path class="st11" d="M129.6,216.2v0.5c0,2.2,0,4.4,0,6.5c0,0.1,0,0.2,0,0.3c0,0.5-0.4,0.9-0.9,0.9c0,0,0,0-0.1,0
		c-0.5,0-0.9-0.4-0.9-0.9c0,0,0-0.1,0-0.1c0-1.1,0-2.3,0-3.4c0-1.5,0-3,0-4.4c-0.1-0.5,0.3-1,0.9-1.1c0.1,0,0.2,0,0.3,0
		c3.1,0,6.3,0,9.4,0c0.3,0,0.7,0,1,0.1c0.9,0.2,1.7,0.9,1.8,1.8c0.1,0.6,0.1,1.2,0,1.8c-0.1,1.2-1.1,2.1-2.3,2.1c-0.9,0-1.9,0-2.8,0
		c-0.1,0-0.3,0-0.4,0.1l0.3,0.2l4.4,2.2l0.2,0.1c0.4,0.2,0.6,0.7,0.4,1.1c-0.2,0.4-0.7,0.6-1.1,0.4l-0.2-0.1l-7.4-3.8
		c-0.1-0.1-0.2-0.1-0.4-0.2c-0.3-0.2-0.4-0.5-0.3-0.8c0.1-0.3,0.4-0.6,0.7-0.6h5.7c0.2,0,0.4,0,0.6-0.1c0.4-0.1,0.7-0.3,0.8-0.7
		c0-0.1,0.1-0.3,0.1-0.5c0.1-0.6-0.3-1.2-0.9-1.3c-0.1,0-0.2,0-0.4,0h-8L129.6,216.2z"/>
	<path class="st11" d="M108.2,220.4v0.5c0,0.8,0,1.6,0,2.5c0,0.1,0,0.3,0,0.5c-0.1,0.5-0.5,0.8-1,0.7c-0.4,0-0.8-0.4-0.8-0.8
		c0-0.1,0-0.2,0-0.3c0-2.6,0-5.1,0-7.7c0-0.2,0-0.4,0.1-0.5c0.1-0.3,0.4-0.5,0.8-0.5c0.1,0,0.3,0,0.4,0h9.2c0.3,0,0.7,0,1,0.1
		c1,0.1,1.8,0.9,1.9,1.9c0.1,0.6,0.1,1.2,0,1.8c-0.1,1.1-1.1,2-2.2,2c-0.2,0-0.5,0-0.7,0H108.2L108.2,220.4z M108.2,218.8h8.1
		c0.1,0,0.3,0,0.5,0c0.6,0,1-0.4,1-1c0.1-0.8-0.1-1.6-1.3-1.6h-7.8h-0.4L108.2,218.8z"/>
	<path class="st11" d="M93.4,219.3l0.4,0.3l3.9,2.7c0.3,0.1,0.4,0.4,0.5,0.7c0,0.3-0.1,0.6-0.3,0.8c-0.2,0.2-0.6,0.2-0.9,0.1
		c-0.1-0.1-0.2-0.1-0.3-0.2l-4.4-3l-0.4-0.2l-0.3,0.2l-4.7,3.1c-0.2,0.2-0.5,0.3-0.8,0.2c-0.3-0.1-0.6-0.3-0.6-0.6
		c-0.1-0.3,0-0.6,0.3-0.8c0.1-0.1,0.2-0.1,0.3-0.2l4-2.6l0.4-0.3L90,219l-4-2.7c-0.1-0.1-0.2-0.1-0.3-0.2c-0.3-0.3-0.4-0.7-0.1-1.1
		c0.2-0.3,0.6-0.4,1-0.3c0.1,0.1,0.2,0.1,0.3,0.2l4.5,3.1c0.4,0.3,0.3,0.3,0.7,0l4.5-3c0.2-0.1,0.4-0.2,0.6-0.2
		c0.3,0,0.7,0.2,0.8,0.5c0.1,0.3,0.1,0.7-0.2,0.9c-0.1,0.1-0.2,0.2-0.3,0.3l-3.8,2.5L93.4,219.3z"/>
</g>
<g>
	<title>speedybiker</title>
	<circle cx="1137.1" cy="422" r="59.4"/>
	<circle class="st0" cx="1137.1" cy="422" r="44.6"/>
	<circle class="st1" cx="1137.1" cy="422" r="36.2"/>
	<circle class="st2" cx="1137.1" cy="422" r="25.6"/>
	<circle class="st3" cx="1137.1" cy="422" r="9.6"/>
	<circle cx="794.3" cy="422" r="59.4"/>
	<circle class="st0" cx="794.3" cy="422" r="45.7"/>
	<circle class="st1" cx="794.3" cy="422" r="36.2"/>
	<circle class="st2" cx="794.3" cy="422" r="25.6"/>
	<circle class="st3" cx="794.3" cy="422" r="9.6"/>
	<path class="st4" d="M1141.1,416.8c2.7,2.7,2.7,7,0,9.6l0,0c-2.7,2.7-7,2.7-9.6,0l-70.7-70.7c-2.7-2.7-2.7-7,0-9.6l0,0
		c2.7-2.7,7-2.7,9.6,0L1141.1,416.8z"/>
	<path class="st5" d="M1039.9,198.7l10.2-0.8c0,0,6.3-12.7,21.3-4.4s5.8,17.3-3,18.4c-8.8,1.1-10.3-1-10.3-1s9.5-10.8-0.3-11.8
		c-9.8-1-10.3,6.6-10.3,6.6l-14.6,0.5L1039.9,198.7z"/>
	<path class="st6" d="M982.6,129.6c3,0.3,7-6.8,11.2,61l51,5.4c0,0-13.1,17-10.6,28.1c0,0-52.9-11.7-60.7-21
		S953.4,126.8,982.6,129.6z"/>
	<path class="st7" d="M1036.4,210.4c0,0,12.8-22.4,23.4-21.5s13.3,15.8,13.3,15.8c2.9-2.7,6.6-4.4,10.6-5c0,0-7.4,20.4,0,37.5
		c0,0-4.9,1.3-9.7-5.3c0,0-10,13.2,5.3,36.9c15.3,23.7,22.3,70.2,22.3,70.2s68.4-29.7,97.8,34.9c0,0-50.4-36.1-94.3,0
		s-24.7,35.7-52.5,44.5c0,0,3.3-9.8,7.7-15.2c0,0-17.2,22.2-44.8,22.2s-131.5-1.8-131.5-1.8s-11.4-1.3-11.8-9.2l-175-2.2
		c0,0-43,16.7,14-54.8c0,0,15.3-8.8,2.6-26.3c0,0,5.3-11,32.5-2.6c0,0,9.7-27.6-14-32.9v-4.9h112.3l0.4,5.7c0,0,67.8-11,98.6-5.7
		c0,0-55.6,48.3-9.5,105.1c0,0,14.9,15.9,106.6-0.3c0,0,13.8-8.3,4.9-67.5s17-56.1,17-56.1L1036.4,210.4z"/>
	<path d="M951.4,266.7c10,1.1,15.8,28.7-10.8,26.9s-76.9,0.1-76.9,0.1s-31.9-32.9-4.4-57S848.5,255.9,951.4,266.7z"/>
	<path d="M1038.5,211.5c0,0,9.5-5.8,13.2,0.3s-4.1,9.7-4.1,9.7S1038.1,215.5,1038.5,211.5z"/>
	
		<rect x="972.3" y="377.8" transform="matrix(0.4384 -0.8988 0.8988 0.4384 206.4928 1095.2813)" class="st5" width="14.7" height="9.2"/>
	<path class="st4" d="M972.3,387c-1.2,2.1-2,4.3-2.5,6.7c0,0,2.2,4.7,8.7,3.7l2.7-7.4C981.1,390,978.4,390.7,972.3,387z"/>
	<path class="st8" d="M970.5,391.5c0,0,5.5,3,9.5,0.9c0,0,11.5-3.3,17.5,0.4c3.4,2,5.4,5.9,5.1,9.8c0,0-23,5.9-35-2.9
		C967.6,399.9,967.9,392,970.5,391.5z"/>
	
		<rect x="939.4" y="372.7" transform="matrix(0.4384 -0.8988 0.8988 0.4384 193.0734 1063.5393)" class="st5" width="16.2" height="9.2"/>
	<path class="st9" d="M892.8,232.6c0,0-20.6,6.8-4.1,17.5s87.8,16.5,114.4,10.2c0,0-18.4,30.3-18.3,51.6s-10.3,64.6-10.3,64.6
		s10.2,4.7,13.7,9.8c0,0,42.8-112.5,32-133.4c-10.8-20.9-76.4-28-76.4-28C937.9,229.5,912.6,231.3,892.8,232.6z"/>
	<path class="st10" d="M884.1,222.2c0,0-14.6,15.7,0,28.8s77.1,18.1,104.4,16.1c0,0-23,27-26.3,48s-18.5,54.3-18.5,54.3
		s9.3,6.3,12,11.8c0,0,58.2-96.4,51-118.8s-71-39.9-71-39.9C929.1,226.4,903.9,224.1,884.1,222.2z"/>
	<path class="st5" d="M897.7,202.9c0,0-11.4,13.2-13.6,19.3c0,0,44.3,5.4,51.5,0.5C935.6,222.7,913.9,198.5,897.7,202.9z"/>
	<polygon class="st5" points="990.4,126.1 1004.2,109.6 1020.5,117.8 1003.7,136.8 	"/>
	<path class="st4" d="M1103.5,65.6c0,0-0.5,48.4-19.5,55.7c0,0-89.6-29.8-62.6-92.9C1048.3-34.6,1090.9,45.9,1103.5,65.6z"/>
	<polygon class="st11" points="1069.4,44.5 1016.3,76.2 1021,91.2 1083.7,49.6 	"/>
	<polygon class="st11" points="1088.8,54.4 1027.1,103.1 1054.1,128.4 1103.5,63.1 	"/>
	<path class="st7" d="M988.3,107.6l68.5,40.9c0,0,31.4-19.4,30.7-28.6c0,0-50.3-16.5-59.3-56.2c-9.5-42.3,77.4,6.5,77.4,6.5
		s11.9-74.3-83.5-69.9C953.5,0.2,988.3,107.6,988.3,107.6z"/>
	<polygon class="st12" points="986.3,100.7 983.6,107 1057.9,151.4 1059.9,148.5 	"/>
	<path class="st7" d="M979.5,116.5c0,0-16.7-2.6-37.7,11.8s-10.9,18.3-38.2,31.6c-21.4,10.4,0.3,32.6-42.8,36.2
		c0,0,23,5.3,36.8,13.2s44.7,15.1,44.7,15.1s22.6-26.9,34.9-33.4c13-6.9,30.8-28,31.8-39.6S1019.8,133.6,979.5,116.5z"/>
	<path class="st5" d="M1010.8,211.8l10,1.8c0,0,9.3-10.7,21.7,1.1c12.4,11.8,1.3,18.2-7.5,17.1s-9.8-3.5-9.8-3.5s11.9-8.1,2.7-11.5
		c-9.2-3.5-11.7,3.9-11.7,3.9l-14.3-3.2L1010.8,211.8z"/>
	<path class="st13" d="M972.7,130.6c2.9,1,8.5-4.8-4.4,61.9l48,18c0,0-14.1,5.7-14.3,17.1c0,0-51.2-17.1-56.5-28.1
		S945,120.5,972.7,130.6z"/>
	<path class="st4" d="M940.5,381.2c-1.2,2.1-2,4.3-2.5,6.7c0,0,2.3,4.7,8.7,3.7l2.7-7.4C949.3,384.2,946.6,384.8,940.5,381.2z"/>
	<path class="st8" d="M938,387.8c0,0,5.1,3.7,9.3,2c0,0,11.8-2,17.3,2.5c3.2,2.4,4.7,6.4,4,10.4c0,0-23.6,3.2-34.4-6.9
		C934.1,395.7,935.3,388,938,387.8z"/>
	<circle cx="1024.4" cy="223.9" r="8.8"/>
	<ellipse class="st14" cx="1085.4" cy="217.7" rx="9.3" ry="20.8"/>
	<ellipse class="st15" cx="714.7" cy="341.7" rx="5.7" ry="12.7"/>
	<rect x="599.7" y="283.6" class="st16" width="244.9" height="7.1"/>
	<polygon class="st17" points="829.2,126.5 624.9,126.5 624.9,141.8 609.6,141.8 609.6,283.6 844.6,283.6 844.6,141.8 	"/>
	<rect x="609.6" y="141.8" class="st3" width="15.3" height="141.8"/>
	<path class="st11" d="M680.9,190.1h22.5c0.3,0,0.5,0,0.8,0.1c1.1,0.3,1.7,1.5,1.3,2.6c-0.3,0.8-1,1.4-1.8,1.4h-22.3h-0.5
		c0,0.1,0,0.3,0,0.4c0,1.2,0,2.4,0,3.6c0,1.2,0.9,2.2,2.1,2.2c0,0,0.1,0,0.1,0h24.2c0.2,0,0.5,0,0.7,0c1.1,0.2,1.9,1.2,1.7,2.4
		c-0.1,0.8-0.7,1.4-1.5,1.6c-0.3,0.1-0.5,0.1-0.8,0.1h-25.6c-1,0-2-0.2-2.9-0.7c-1.5-0.8-2.6-2.3-2.9-4c-0.1-0.4-0.1-0.7-0.1-1.1
		c0-4.4,0-8.8,0-13.2c0-1.2,0.3-2.4,1-3.4c0.9-1.2,2.2-2.1,3.7-2.3c0.4-0.1,0.8-0.1,1.2-0.1h25.6c0.4,0,0.8,0.1,1.2,0.3
		c0.7,0.4,1.1,1.2,1,2.1c-0.1,0.9-0.8,1.6-1.6,1.8c-0.2,0-0.5,0.1-0.7,0.1h-23.9c-0.3,0-0.7,0-1,0.1c-0.9,0.2-1.5,1-1.5,1.9
		c0,1.3,0,2.7,0,4C680.9,189.9,680.9,190,680.9,190.1z"/>
	<path class="st11" d="M735.9,194.6l0.3,0.2l12.2,6c0.2,0.1,0.4,0.2,0.5,0.3c0.9,0.6,1.3,1.8,0.8,2.8c-0.5,1.1-1.8,1.6-2.9,1.1
		c0,0,0,0,0,0c-0.5-0.2-0.9-0.5-1.4-0.7l-18.7-9.7c-0.6-0.3-1.1-0.8-1.2-1.5c-0.3-1.1,0.3-2.2,1.4-2.5c0.2,0,0.3-0.1,0.5-0.1h14.7
		c0.4,0,0.8,0,1.2-0.1c1-0.2,1.8-1,2-2.1c0.2-0.8,0.2-1.6,0-2.3c-0.2-0.9-0.9-1.7-1.9-1.9c-0.3-0.1-0.7-0.1-1-0.1
		c-1.1,0-2.3,0-3.4,0h-18c0,0.2,0,0.4,0,0.6c0,2.8,0,5.6,0,8.4c0,3.2,0,6.4,0,9.6c0,0.5-0.1,1.1-0.5,1.5c-0.6,0.8-1.6,1.2-2.6,0.9
		c-0.9-0.3-1.6-1-1.8-2c0-0.2,0-0.5,0-0.7c0-6.6,0-13.1,0-19.7c0-0.3,0-0.7,0.1-1c0.3-1,1.2-1.8,2.3-1.8h24.5c0.9,0,1.7,0.1,2.5,0.3
		c2.3,0.4,4.1,2.2,4.5,4.5c0.4,1.8,0.4,3.6,0,5.4c-0.5,2.3-2.3,4.1-4.7,4.5c-1.2,0.2-2.5,0.3-3.7,0.2h-1.1l-4.3-0.1H736L735.9,194.6
		z"/>
	<path class="st11" d="M762.5,183.9c0,0.3,0,0.5,0,0.7c0,5.9,0,11.7,0,17.6c0,0.2,0,0.4,0,0.6c-0.1,1.3-1.2,2.3-2.6,2.3
		c-1.2-0.1-2.2-1-2.3-2.3c0-0.1,0-0.3,0-0.4c0-6.7,0-13.4,0-20.1c0-0.4,0.1-0.9,0.3-1.3c0.4-0.8,1.2-1.3,2.1-1.3h24.5
		c0.9,0,1.8,0.1,2.7,0.3c2.2,0.5,3.8,2.2,4.3,4.3c0.3,1.3,0.4,2.7,0.3,4c-0.1,0.7-0.2,1.3-0.4,1.9c-0.5,2-2.2,3.6-4.2,4
		c-0.9,0.2-1.9,0.3-2.8,0.3l-6.6-0.1h-0.4v0.1c0.1,0.1,0.2,0.1,0.3,0.2l11,5.4c0.5,0.3,1,0.5,1.5,0.8c1.1,0.5,1.6,1.8,1.1,2.9
		c-0.5,1.1-1.8,1.6-2.9,1.1c-0.1,0-0.1-0.1-0.2-0.1l-3.5-1.8l-15.2-7.9c-0.5-0.2-1-0.5-1.4-0.7c-1-0.6-1.3-1.8-0.8-2.8
		c0.2-0.3,0.4-0.5,0.7-0.7c0.4-0.2,0.8-0.3,1.2-0.3h11.1c1.2,0,2.3,0,3.5,0c0.4,0,0.8-0.1,1.2-0.1c1-0.2,1.8-1,2-2
		c0.2-0.8,0.2-1.7,0-2.5c-0.2-0.9-0.9-1.6-1.8-1.8c-0.3-0.1-0.7-0.1-1-0.1c-1.2,0-2.5,0-3.7,0L762.5,183.9L762.5,183.9z"/>
	<path class="st11" d="M815,204.6h-12.1c-0.3,0-0.5,0-0.8-0.1c-1.1-0.1-1.9-1-1.9-2.1s1-1.9,2.1-1.9c0.2,0,0.5,0,0.7,0h22.3
		c0.3,0,0.6,0,0.8,0c1-0.2,1.8-1.1,1.7-2.1c0.1-1.1,0-2.3,0-3.4c0-0.3,0-0.3-0.3-0.3h-23c-1,0-2-0.2-2.9-0.6c-1.6-0.8-2.8-2.4-3-4.2
		c-0.1-0.4-0.1-0.7-0.1-1.1c0-2.3,0-4.6,0-7c0-0.6,0.2-1.1,0.5-1.5c0.8-1,2.4-1.2,3.4-0.4c0.6,0.5,0.9,1.1,0.9,1.9
		c0,2.1,0,4.3,0,6.4c0,0.2,0,0.4,0,0.5c0.2,1.1,1.1,1.8,2.1,1.9h21.7c0.6,0,0.6,0.1,0.6-0.6c0-2.7,0-5.4,0-8.1
		c0-0.9,0.5-1.8,1.3-2.2c1.2-0.6,2.6-0.2,3.3,0.9c0.1,0.2,0.2,0.3,0.2,0.5c0.1,0.2,0.1,0.5,0.1,0.7c0,5.7,0,11.3,0,17
		c0,1.1-0.3,2.2-0.9,3.2c-0.8,1.3-2.2,2.3-3.8,2.5c-0.5,0.1-0.9,0.1-1.4,0.1L815,204.6z"/>
	<path class="st11" d="M654.1,191.3l0.5,0.3l14.3,9.3c0.6,0.3,1,0.9,1.1,1.6c0.2,1.1-0.5,2.2-1.6,2.5c-0.6,0.2-1.3,0.1-1.9-0.3
		L661,201l-11-7.1c-0.2-0.2-0.6-0.2-0.8,0c-2.5,1.4-5,2.7-7.6,4l-0.1,0c-0.2,0.1-0.4,0.3-0.3,0.5c0,1.3,0,2.5,0,3.8
		c0,0.3,0,0.6-0.1,0.9c-0.3,1.1-1.3,1.9-2.5,1.8c-1.1-0.1-2-0.9-2.3-1.9c0-0.2,0-0.4,0-0.5c0-6.9,0-13.9,0-20.8c0-1.2,0.8-2.2,2-2.5
		c1.3-0.2,2.6,0.7,2.8,2c0,0.3,0.1,0.6,0.1,0.9c0,3.5,0,6.9,0,10.4v0.5c0.2-0.1,0.3-0.1,0.5-0.2l5.7-3l19.2-10.2
		c0.5-0.3,1.2-0.4,1.8-0.3c0.9,0.2,1.5,0.9,1.7,1.8c0.1,0.9-0.3,1.7-1,2.2l-0.3,0.2l-14.1,7.5L654.1,191.3z"/>
	<path class="st11" d="M750.9,220.4c0,0.6,0,1.2,0,1.8c0,0.4,0.4,0.7,0.8,0.7c0.2,0,0.4,0,0.6,0h9c0.1,0,0.3,0,0.5,0
		c0.4,0,0.7,0.3,0.7,0.7c0.1,0.4-0.2,0.7-0.5,0.9c-0.1,0-0.3,0.1-0.4,0.1h-10.2c-1.2,0-2.3-0.9-2.3-2.2c0-0.1,0-0.1,0-0.2
		c0-1.8,0-3.5,0-5.3c0-1.2,0.9-2.3,2.2-2.3c0.1,0,0.1,0,0.2,0h10.3c0.5,0,0.9,0.3,0.9,0.8c0,0,0,0,0,0c0,0.4-0.3,0.8-0.7,0.8h-9.6
		c-0.2,0-0.4,0-0.5,0c-0.4,0-0.7,0.3-0.7,0.7c0,0.6,0,1.1,0,1.7h0.5h8.3c0.1,0,0.3,0,0.4,0c0.4,0,0.7,0.4,0.7,0.8
		c0,0.4-0.3,0.8-0.7,0.9c-0.1,0-0.3,0-0.4,0h-8.8L750.9,220.4z"/>
	<path class="st11" d="M665.6,220.4c0,0.6,0,1.2,0,1.7c0,0.4,0.3,0.7,0.7,0.7c0.2,0,0.4,0,0.6,0h9.1c0.1,0,0.3,0,0.4,0
		c0.4,0,0.7,0.3,0.7,0.7c0,0.4-0.2,0.8-0.6,0.9c-0.1,0-0.3,0.1-0.5,0H666c-1.2,0.1-2.3-0.9-2.4-2.1c0-0.1,0-0.1,0-0.2
		c0-1.8,0-3.5,0-5.3c-0.1-1.2,0.9-2.3,2.1-2.3c0.1,0,0.1,0,0.2,0h10.3c0.4-0.1,0.8,0.2,0.9,0.7c0.1,0.4-0.1,0.9-0.6,1
		c0,0-0.1,0-0.1,0c-0.1,0-0.3,0-0.5,0h-9.2c-0.2,0-0.4,0-0.6,0c-0.4,0.1-0.6,0.4-0.7,0.7c0,0.5,0,1.1,0,1.7h0.5h8.7
		c0.5,0,0.8,0.4,0.8,0.8s-0.4,0.8-0.8,0.8h-9.2V220.4z"/>
	<path class="st11" d="M776.5,224.5h-4.7c-0.1,0-0.3,0-0.4,0c-0.4,0-0.7-0.4-0.8-0.8c0-0.4,0.2-0.8,0.6-0.9c0.1,0,0.3,0,0.5,0h8.7
		c0.1,0,0.3,0,0.5,0c0.2,0,0.3-0.1,0.5-0.1c0.4-0.2,0.7-0.8,0.6-1.3c0-0.5-0.3-0.9-0.7-1c-0.2-0.1-0.4-0.1-0.7-0.1h-7
		c-0.3,0-0.7,0-1-0.1c-1-0.1-1.9-0.9-2-1.9c-0.1-0.6-0.1-1.2,0-1.8c0.1-1,1-1.8,2-1.9c0.3,0,0.6-0.1,0.9-0.1h9.2
		c0.2,0,0.4,0,0.6,0.1c0.4,0.1,0.6,0.5,0.5,0.9c-0.1,0.4-0.4,0.7-0.7,0.7h-9c-0.3,0-0.5,0-0.8,0c-0.4,0-0.7,0.3-0.8,0.8
		c-0.1,0.3-0.1,0.6,0,0.9c0.1,0.4,0.4,0.7,0.8,0.7c0.2,0,0.4,0.1,0.6,0.1h7c0.3,0,0.7,0,1,0.1c1,0.1,1.8,0.9,1.9,1.9
		c0.1,0.6,0.1,1.1,0,1.7c-0.1,1.2-1.1,2-2.3,2.1c-0.3,0-0.5,0-0.8,0L776.5,224.5z"/>
	<path class="st11" d="M798.1,224.5h-4.7c-0.1,0-0.3,0-0.4,0c-0.4,0-0.7-0.4-0.8-0.8c0-0.4,0.3-0.8,0.7-0.9c0.1,0,0.3,0,0.4,0h8.7
		c0.1,0,0.3,0,0.5,0c0.2,0,0.3-0.1,0.5-0.1c0.5-0.3,0.6-0.8,0.5-1.3c0-0.4-0.3-0.8-0.7-0.9c-0.2-0.1-0.4-0.1-0.7-0.1H795
		c-0.4,0-0.9,0-1.3-0.1c-0.8-0.2-1.5-0.8-1.7-1.7c-0.2-0.7-0.2-1.5,0-2.2c0.2-1,1-1.7,2-1.7c0.3,0,0.6-0.1,0.9-0.1h9.2
		c0.1,0,0.3,0,0.5,0c0.4,0.1,0.7,0.5,0.7,0.9c-0.1,0.4-0.4,0.7-0.8,0.7h-8.9c-0.3,0-0.5,0-0.8,0.1c-0.4,0-0.7,0.3-0.8,0.8
		c0,0.2,0,0.4,0,0.6c0,0.5,0.4,1,0.9,1c0.2,0,0.4,0,0.5,0h7c0.3,0,0.7,0,1,0.1c1,0.1,1.8,0.9,1.9,1.9c0.1,0.6,0.1,1.2,0,1.7
		c-0.1,1.2-1.1,2-2.3,2c-0.3,0-0.5,0-0.8,0L798.1,224.5z"/>
	<path class="st11" d="M729.3,216.2v0.5c0,2.2,0,4.4,0,6.5c0,0.1,0,0.2,0,0.3c0,0.5-0.4,0.9-0.9,0.9c0,0,0,0-0.1,0
		c-0.5,0-0.9-0.4-0.9-0.9c0,0,0-0.1,0-0.1c0-1.1,0-2.3,0-3.4c0-1.5,0-3,0-4.4c-0.1-0.5,0.3-1,0.9-1.1c0.1,0,0.2,0,0.3,0
		c3.1,0,6.3,0,9.4,0c0.3,0,0.7,0,1,0.1c0.9,0.2,1.7,0.9,1.8,1.8c0.1,0.6,0.1,1.2,0,1.8c-0.1,1.2-1.1,2.1-2.3,2.1c-0.9,0-1.9,0-2.8,0
		c-0.1,0-0.3,0-0.4,0.1l0.3,0.2l4.4,2.2l0.2,0.1c0.4,0.2,0.6,0.7,0.4,1.1c-0.2,0.4-0.7,0.6-1.1,0.4l-0.2-0.1l-7.4-3.8
		c-0.1-0.1-0.2-0.1-0.4-0.2c-0.3-0.2-0.4-0.5-0.3-0.8c0.1-0.3,0.4-0.6,0.7-0.6h5.7c0.2,0,0.4,0,0.6-0.1c0.4-0.1,0.7-0.3,0.8-0.7
		c0-0.1,0.1-0.3,0.1-0.5c0.1-0.6-0.3-1.2-0.9-1.3c-0.1,0-0.2,0-0.4,0h-8L729.3,216.2z"/>
	<path class="st11" d="M707.9,220.4v0.5c0,0.8,0,1.6,0,2.5c0,0.1,0,0.3,0,0.5c-0.1,0.5-0.5,0.8-1,0.7c-0.4,0-0.8-0.4-0.8-0.8
		c0-0.1,0-0.2,0-0.3c0-2.6,0-5.1,0-7.7c0-0.2,0-0.4,0.1-0.5c0.1-0.3,0.4-0.5,0.8-0.5c0.1,0,0.3,0,0.4,0h9.2c0.3,0,0.7,0,1,0.1
		c1,0.1,1.8,0.9,1.9,1.9c0.1,0.6,0.1,1.2,0,1.8c-0.1,1.1-1.1,2-2.2,2c-0.2,0-0.5,0-0.7,0H707.9L707.9,220.4z M707.9,218.8h8.1
		c0.1,0,0.3,0,0.5,0c0.6,0,1-0.4,1-1c0.1-0.8-0.1-1.6-1.3-1.6h-7.8h-0.4L707.9,218.8z"/>
	<path class="st11" d="M693.2,219.3l0.4,0.3l3.9,2.7c0.3,0.1,0.4,0.4,0.5,0.7c0,0.3-0.1,0.6-0.3,0.8c-0.2,0.2-0.6,0.2-0.9,0.1
		c-0.1-0.1-0.2-0.1-0.3-0.2l-4.4-3l-0.4-0.2l-0.3,0.2l-4.7,3.1c-0.2,0.2-0.5,0.3-0.8,0.2c-0.3-0.1-0.6-0.3-0.6-0.6
		c-0.1-0.3,0-0.6,0.3-0.8c0.1-0.1,0.2-0.1,0.3-0.2l4-2.6l0.4-0.3l-0.3-0.3l-4-2.7c-0.1-0.1-0.2-0.1-0.3-0.2
		c-0.3-0.3-0.4-0.7-0.1-1.1c0.2-0.3,0.6-0.4,1-0.3c0.1,0.1,0.2,0.1,0.3,0.2l4.5,3.1c0.4,0.3,0.3,0.3,0.7,0l4.5-3
		c0.2-0.1,0.4-0.2,0.6-0.2c0.3,0,0.7,0.2,0.8,0.5c0.1,0.3,0.1,0.7-0.2,0.9c-0.1,0.1-0.2,0.2-0.3,0.3l-3.8,2.5L693.2,219.3z"/>
</g>
</svg>
