<?xml version="1.0" encoding="utf-8"?>
<!-- Generator: Adobe Illustrator 19.0.0, SVG Export Plug-In . SVG Version: 6.00 Build 0)  -->
<svg version="1.1" id="Layer_1" xmlns="http://www.w3.org/2000/svg" xmlns:xlink="http://www.w3.org/1999/xlink" x="0px" y="0px"
	 viewBox="0 0 322.1 450.2" style="enable-background:new 0 0 322.1 450.2;" xml:space="preserve">
<style type="text/css">
	.st0{fill-rule:evenodd;clip-rule:evenodd;fill:#F2F2F2;}
	.st1{fill-rule:evenodd;clip-rule:evenodd;fill:#CCCCCC;}
	.st2{fill-rule:evenodd;clip-rule:evenodd;fill:#253E54;}
	.st3{fill:#FFFFFF;}
	.st4{fill-rule:evenodd;clip-rule:evenodd;fill:#FFFFFF;}
</style>
<g id="XMLID_1_">
	<g id="XMLID_9_">
		<path id="XMLID_14_" class="st0" d="M169.7,256.9h132.8c10.8,0,19.6,8.8,19.6,19.6v132.8c0,10.8-8.8,19.6-19.6,19.6H169.7
			c-10.8,0-19.6-8.8-19.6-19.6V276.5C150.2,265.7,159,256.9,169.7,256.9z"/>
		<path id="XMLID_13_" class="st1" d="M236.1,400.2c31.6,0,57.3-25.7,57.3-57.3c0-31.6-25.7-57.3-57.3-57.3
			c-31.6,0-57.3,25.7-57.3,57.3C178.8,374.4,204.6,400.2,236.1,400.2z"/>
		<path id="XMLID_10_" class="st2" d="M210.7,333.5c5.2,0,9.4,4.2,9.4,9.4c0,5.2-4.2,9.4-9.4,9.4c-5.2,0-9.4-4.2-9.4-9.4
			C201.3,337.7,205.5,333.5,210.7,333.5L210.7,333.5z M261.6,333.5c5.2,0,9.4,4.2,9.4,9.4c0,5.2-4.2,9.4-9.4,9.4s-9.4-4.2-9.4-9.4
			C252.2,337.7,256.4,333.5,261.6,333.5z"/>
	</g>
	<g id="XMLID_15_">
		<rect id="XMLID_3_" x="46.2" class="st3" width="17.4" height="321.6"/>
		<g id="XMLID_4_">
			<path id="XMLID_7_" class="st1" d="M26.3,267.2h57c6.2,0,11.2,5,11.2,11.2v84.9c0,6.2-5,11.2-11.2,11.2h-57
				c-6.2,0-11.2-5-11.2-11.2v-84.9C15.1,272.2,20.2,267.2,26.3,267.2z"/>
			<path id="XMLID_18_" class="st1" d="M29.5,342.9L29.5,342.9c4.7,0,8.6,3.9,8.6,8.6v90.1c0,4.7-3.9,8.6-8.6,8.6l0,0
				c-4.7,0-8.6-3.9-8.6-8.6v-90.1C20.9,346.7,24.8,342.9,29.5,342.9L29.5,342.9z M80.2,342.9L80.2,342.9c4.7,0,8.6,3.9,8.6,8.6v90.1
				c0,4.7-3.9,8.6-8.6,8.6l0,0c-4.7,0-8.6-3.9-8.6-8.6v-90.1C71.6,346.7,75.5,342.9,80.2,342.9z"/>
			<path id="XMLID_5_" class="st4" d="M15.1,294.4h79.5c8.3,0,15.1,6.8,15.1,15.1v77.1c0,8.3-6.8,15.1-15.1,15.1H15.1
				c-8.3,0-15.1-6.8-15.1-15.1v-77.1C0,301.2,6.8,294.4,15.1,294.4z"/>
		</g>
	</g>
</g>
</svg>
