<?xml version="1.0" encoding="utf-8"?>
<!-- Generator: Adobe Illustrator 19.0.0, SVG Export Plug-In . SVG Version: 6.00 Build 0)  -->
<svg version="1.1" id="Layer_1" xmlns="http://www.w3.org/2000/svg" xmlns:xlink="http://www.w3.org/1999/xlink" x="0px" y="0px"
	 viewBox="77.7 36 252.5 95.1" style="enable-background:new 77.7 36 252.5 95.1;" xml:space="preserve">
<style type="text/css">
	.st0{fill:#58595B;}
</style>
<g id="XMLID_36_">
	<path id="XMLID_37_" class="st0" d="M142.4,72.3v22.8h-7.7V36.7h21.5c3.3,0,6.2,0.4,8.8,1.3c2.5,0.9,4.7,2.1,6.4,3.7s3,3.5,3.9,5.7
		s1.3,4.6,1.3,7.2c0,2.8-0.4,5.3-1.3,7.5c-0.9,2.2-2.2,4.1-3.9,5.6s-3.9,2.6-6.4,3.4s-5.5,1.2-8.8,1.2L142.4,72.3L142.4,72.3z
		 M142.4,66h13.8c2.2,0,4.2-0.3,5.8-0.8c1.6-0.6,2.9-1.3,4-2.3c1-1,1.8-2.2,2.3-3.6s0.7-2.9,0.7-4.5c0-1.5-0.2-2.9-0.7-4.3
		s-1.2-2.6-2.3-3.7c-1-1.1-2.4-1.9-4-2.6c-1.6-0.6-3.5-1-5.8-1h-13.8L142.4,66L142.4,66z"/>
	<path id="XMLID_40_" class="st0" d="M184.5,95.1V36.7H201c3.8,0,7.3,0.6,10.5,1.9s5.9,3.1,8.1,5.5c2.3,2.4,4,5.3,5.3,8.7
		c1.2,3.4,1.9,7.2,1.9,11.4v3.4c0,4.2-0.6,8-1.9,11.4c-1.2,3.4-3,6.3-5.3,8.6c-2.3,2.4-5.1,4.2-8.3,5.5c-3.3,1.3-6.9,1.9-10.9,1.9
		h-15.9V95.1z M192.1,43.1v45.7h8.1c3.1,0,5.8-0.5,8.2-1.5s4.3-2.4,5.9-4.3c1.6-1.8,2.8-4.1,3.5-6.7c0.8-2.6,1.2-5.5,1.2-8.7V64
		c0-3.3-0.4-6.3-1.2-8.9s-2-4.8-3.5-6.6c-1.5-1.8-3.4-3.2-5.7-4.1s-4.8-1.4-7.7-1.4h-8.8V43.1z"/>
	<path id="XMLID_43_" class="st0" d="M279.1,76.6c-0.3,2.8-1,5.3-2,7.7c-1,2.4-2.5,4.4-4.3,6.1s-4,3.1-6.7,4c-2.6,1-5.7,1.5-9.2,1.5
		c-3.4,0-6.6-0.6-9.4-1.9c-2.8-1.3-5.2-3.1-7.2-5.5s-3.5-5.2-4.6-8.5s-1.6-7-1.6-11.1V63c0-4.1,0.5-7.8,1.6-11.1
		c1.1-3.3,2.7-6.2,4.7-8.5c2-2.4,4.5-4.2,7.4-5.5s6.2-1.9,9.8-1.9c3.3,0,6.2,0.5,8.7,1.4c2.5,1,4.7,2.3,6.5,4s3.2,3.8,4.2,6.2
		c1,2.4,1.7,5,2,7.9h-7.7c-0.3-2-0.7-3.9-1.4-5.5c-0.6-1.6-1.5-3-2.5-4.2c-1.1-1.1-2.4-2-4-2.6s-3.5-0.9-5.8-0.9
		c-2.6,0-4.9,0.5-6.8,1.5c-2,1-3.6,2.4-4.9,4.2c-1.3,1.8-2.3,4-3,6.5c-0.7,2.6-1,5.4-1,8.4v5.9c0,2.9,0.3,5.5,0.9,8.1
		c0.6,2.5,1.5,4.7,2.7,6.6s2.8,3.4,4.7,4.4c1.9,1.1,4.1,1.6,6.7,1.6c2.5,0,4.5-0.3,6.2-0.9s3.1-1.4,4.2-2.5c1.1-1.1,2-2.5,2.6-4.1
		s1.1-3.5,1.4-5.5L279.1,76.6L279.1,76.6z"/>
</g>
<g id="XMLID_1_">
	<path id="XMLID_2_" class="st0" d="M80.1,122.5v8.2h-2.4v-20.8h6.7c1,0,1.9,0.2,2.7,0.5c0.8,0.3,1.5,0.8,2,1.3
		c0.5,0.6,0.9,1.2,1.2,2c0.3,0.8,0.4,1.6,0.4,2.6s-0.1,1.9-0.4,2.7c-0.3,0.8-0.7,1.4-1.2,2c-0.5,0.5-1.2,0.9-2,1.2
		c-0.8,0.3-1.7,0.4-2.7,0.4h-4.3V122.5z M80.1,120.3h4.3c0.7,0,1.3-0.1,1.8-0.3c0.5-0.2,0.9-0.5,1.2-0.8c0.3-0.4,0.6-0.8,0.7-1.3
		s0.2-1,0.2-1.6c0-0.5-0.1-1.1-0.2-1.6c-0.2-0.5-0.4-0.9-0.7-1.3c-0.3-0.4-0.7-0.7-1.2-0.9c-0.5-0.2-1.1-0.3-1.8-0.3h-4.3V120.3z"/>
	<path id="XMLID_7_" class="st0" d="M110.3,121c0,1.6-0.2,3-0.5,4.2s-0.8,2.3-1.5,3.2c-0.6,0.9-1.4,1.5-2.3,2s-1.9,0.7-3,0.7
		s-2.1-0.2-3-0.7s-1.7-1.1-2.3-2s-1.2-1.9-1.5-3.2c-0.4-1.2-0.5-2.6-0.5-4.2v-1.3c0-1.6,0.2-3,0.5-4.2c0.4-1.2,0.9-2.3,1.5-3.2
		c0.6-0.9,1.4-1.5,2.3-2s1.9-0.7,3-0.7s2.1,0.2,3,0.7s1.7,1.1,2.3,2c0.6,0.9,1.1,1.9,1.5,3.2c0.3,1.2,0.5,2.6,0.5,4.2V121z
		 M107.9,119.6c0-1.2-0.1-2.3-0.3-3.3c-0.2-1-0.5-1.8-1-2.4c-0.4-0.6-0.9-1.1-1.6-1.5c-0.6-0.3-1.3-0.5-2.1-0.5
		c-0.7,0-1.4,0.2-2,0.5s-1.1,0.8-1.6,1.5c-0.4,0.6-0.8,1.5-1,2.4c-0.2,1-0.3,2.1-0.3,3.3v1.3c0,1.2,0.1,2.4,0.4,3.3
		c0.2,1,0.6,1.8,1,2.4c0.4,0.7,1,1.1,1.6,1.5c0.6,0.3,1.3,0.5,2,0.5c0.8,0,1.5-0.2,2.1-0.5s1.1-0.8,1.5-1.5s0.7-1.5,1-2.4
		c0.2-1,0.3-2.1,0.3-3.3V119.6z"/>
	<path id="XMLID_10_" class="st0" d="M126.2,125.4c0-0.5-0.1-0.9-0.2-1.3s-0.4-0.7-0.7-1c-0.3-0.3-0.8-0.6-1.3-0.9
		c-0.6-0.3-1.3-0.6-2.1-0.8c-0.9-0.3-1.7-0.6-2.4-1c-0.7-0.4-1.3-0.8-1.9-1.3c-0.5-0.5-0.9-1.1-1.2-1.7c-0.3-0.6-0.4-1.4-0.4-2.2
		s0.1-1.6,0.4-2.3c0.3-0.7,0.7-1.3,1.3-1.8c0.5-0.5,1.2-0.9,1.9-1.2c0.8-0.3,1.6-0.4,2.5-0.4c1,0,1.9,0.2,2.7,0.5
		c0.8,0.4,1.5,0.8,2,1.4s1,1.3,1.2,2c0.3,0.8,0.4,1.6,0.4,2.4h-2.4c0-0.6-0.1-1.1-0.2-1.6c-0.2-0.5-0.4-0.9-0.7-1.3
		c-0.3-0.4-0.7-0.6-1.2-0.8c-0.5-0.2-1.1-0.3-1.8-0.3c-0.6,0-1.2,0.1-1.7,0.3c-0.5,0.2-0.9,0.4-1.2,0.7c-0.3,0.3-0.5,0.7-0.7,1.1
		c-0.1,0.4-0.2,0.9-0.2,1.3s0.1,0.8,0.2,1.2c0.2,0.4,0.4,0.7,0.8,1c0.3,0.3,0.8,0.6,1.3,0.8c0.5,0.3,1.2,0.5,1.9,0.7
		c1,0.3,1.9,0.7,2.7,1.1c0.7,0.4,1.4,0.9,1.9,1.4s0.8,1.1,1.1,1.7c0.2,0.6,0.4,1.4,0.4,2.2c0,0.8-0.2,1.6-0.4,2.3
		c-0.3,0.7-0.7,1.3-1.3,1.8c-0.6,0.5-1.2,0.9-2,1.1c-0.8,0.3-1.6,0.4-2.6,0.4c-0.6,0-1.1-0.1-1.7-0.2s-1.1-0.3-1.6-0.5
		s-1-0.5-1.4-0.9s-0.8-0.8-1.1-1.2c-0.3-0.5-0.6-1-0.8-1.6c-0.2-0.6-0.3-1.2-0.3-1.9h2.4c0,0.7,0.1,1.3,0.4,1.8
		c0.2,0.5,0.6,0.9,1,1.3c0.4,0.3,0.9,0.6,1.4,0.7c0.5,0.2,1.1,0.2,1.7,0.2c1.3,0,2.2-0.3,2.9-0.9
		C125.8,127.3,126.2,126.5,126.2,125.4z"/>
	<path id="XMLID_12_" class="st0" d="M143.2,130.7v-20.8h5.1c1.2,0,2.3,0.2,3.3,0.7s1.8,1.1,2.5,2c0.7,0.8,1.2,1.9,1.6,3.1
		s0.6,2.6,0.6,4.1v1.2c0,1.5-0.2,2.9-0.6,4.1s-0.9,2.2-1.6,3.1c-0.7,0.8-1.6,1.5-2.6,1.9c-1,0.5-2.2,0.7-3.4,0.7h-4.9V130.7z
		 M145.6,112.1v16.3h2.5c1,0,1.8-0.2,2.5-0.5c0.7-0.4,1.3-0.9,1.8-1.5s0.9-1.5,1.1-2.4s0.4-2,0.4-3.1v-1.3c0-1.2-0.1-2.3-0.4-3.2
		c-0.3-0.9-0.6-1.7-1.1-2.4c-0.5-0.6-1.1-1.1-1.8-1.5c-0.7-0.3-1.5-0.5-2.4-0.5h-2.6V112.1z"/>
	<path id="XMLID_15_" class="st0" d="M172.5,125.3h-7.6l-1.7,5.4h-2.5l6.9-20.8h2.1l7,20.8h-2.5L172.5,125.3z M165.6,123h6.2
		l-3.1-9.7L165.6,123z"/>
	<path id="XMLID_18_" class="st0" d="M192.6,112.1h-5.8v18.6h-2.4v-18.6h-5.9v-2.3h14.1V112.1z"/>
	<path id="XMLID_20_" class="st0" d="M207,125.3h-7.6l-1.7,5.4h-2.5l6.9-20.8h2.1l7,20.8h-2.5L207,125.3z M200.1,123h6.2l-3.1-9.7
		L200.1,123z"/>
	<path id="XMLID_23_" class="st0" d="M238.3,124.1c-0.1,1-0.3,1.9-0.6,2.7c-0.3,0.8-0.8,1.6-1.3,2.2c-0.6,0.6-1.3,1.1-2.1,1.4
		s-1.8,0.5-2.9,0.5c-1.1,0-2-0.2-2.9-0.7s-1.6-1.1-2.2-2c-0.6-0.8-1.1-1.9-1.4-3c-0.3-1.2-0.5-2.5-0.5-4v-2.1c0-1.5,0.2-2.8,0.5-4
		s0.8-2.2,1.5-3c0.6-0.8,1.4-1.5,2.3-2c0.9-0.5,1.9-0.7,3-0.7c1,0,1.9,0.2,2.7,0.5s1.5,0.8,2,1.4c0.6,0.6,1,1.4,1.3,2.2
		c0.3,0.9,0.5,1.8,0.6,2.8h-2.4c-0.1-0.7-0.2-1.4-0.4-2s-0.5-1.1-0.8-1.5s-0.8-0.7-1.3-0.9c-0.5-0.2-1.1-0.3-1.8-0.3
		c-0.8,0-1.5,0.2-2.1,0.5c-0.6,0.4-1.1,0.9-1.5,1.5s-0.7,1.4-0.9,2.3s-0.3,1.9-0.3,3v2.1c0,1,0.1,2,0.3,2.9s0.5,1.7,0.9,2.4
		c0.4,0.7,0.9,1.2,1.5,1.6s1.3,0.6,2.1,0.6s1.4-0.1,1.9-0.3c0.5-0.2,1-0.5,1.3-0.9s0.6-0.9,0.8-1.5s0.3-1.2,0.4-2h2.3V124.1z"/>
	<path id="XMLID_25_" class="st0" d="M254.5,121.1h-7.9v7.4h9.2v2.2h-11.5v-20.8h11.4v2.3h-9v6.7h7.9v2.2H254.5z"/>
	<path id="XMLID_27_" class="st0" d="M275.3,130.7h-2.4l-9.2-16.1v16.1h-2.4v-20.8h2.4l9.2,16.1v-16.1h2.4V130.7z"/>
	<path id="XMLID_29_" class="st0" d="M294.6,112.1h-5.8v18.6h-2.4v-18.6h-5.8v-2.3h14.1L294.6,112.1L294.6,112.1z"/>
	<path id="XMLID_31_" class="st0" d="M310.1,121.1h-7.9v7.4h9.2v2.2h-11.5v-20.8h11.4v2.3h-9v6.7h7.9v2.2H310.1z"/>
	<path id="XMLID_33_" class="st0" d="M323.6,122.3h-4.3v8.4h-2.4v-20.8h6c2,0,3.6,0.5,4.7,1.6c1.1,1.1,1.7,2.6,1.7,4.7
		c0,1.3-0.3,2.4-0.9,3.4c-0.6,1-1.5,1.7-2.6,2.2l4.3,8.8v0.2h-2.6L323.6,122.3z M319.5,120h3.7c0.6,0,1.2-0.1,1.7-0.3
		c0.5-0.2,0.9-0.5,1.2-0.8s0.6-0.8,0.7-1.2c0.2-0.5,0.2-1,0.2-1.5c0-0.6-0.1-1.1-0.2-1.6c-0.2-0.5-0.4-0.9-0.7-1.3s-0.7-0.6-1.2-0.8
		c-0.5-0.2-1.1-0.3-1.8-0.3h-3.6L319.5,120L319.5,120z"/>
</g>
<g id="XMLID_4_">
</g>
<g id="XMLID_5_">
</g>
<g id="XMLID_45_">
</g>
<g id="XMLID_46_">
</g>
<g id="XMLID_47_">
</g>
<g id="XMLID_48_">
</g>
<g id="XMLID_49_">
</g>
<g id="XMLID_50_">
</g>
<g id="XMLID_51_">
</g>
<g id="XMLID_52_">
</g>
<g id="XMLID_53_">
</g>
<g id="XMLID_54_">
</g>
<g id="XMLID_55_">
</g>
<g id="XMLID_56_">
</g>
<g id="XMLID_57_">
</g>
</svg>
