<?xml version="1.0" encoding="utf-8"?>
<!-- Generator: Adobe Illustrator 19.0.0, SVG Export Plug-In . SVG Version: 6.00 Build 0)  -->
<svg version="1.1" id="Layer_1" xmlns="http://www.w3.org/2000/svg" xmlns:xlink="http://www.w3.org/1999/xlink" x="0px" y="0px"
	 viewBox="0 0 171.9 171.9" style="enable-background:new 0 0 171.9 171.9;" xml:space="preserve">
<style type="text/css">
	.st0{fill-rule:evenodd;clip-rule:evenodd;fill:#F2F2F2;}
	.st1{fill-rule:evenodd;clip-rule:evenodd;fill:#CCCCCC;}
	.st2{fill-rule:evenodd;clip-rule:evenodd;fill:#253E54;}
</style>
<g id="XMLID_9_">
	<path id="XMLID_14_" class="st0" d="M19.6,0h132.8c10.8,0,19.6,8.8,19.6,19.6v132.8c0,10.8-8.8,19.6-19.6,19.6H19.6
		C8.8,171.9,0,163.1,0,152.3V19.6C0,8.8,8.8,0,19.6,0z"/>
	<path id="XMLID_13_" class="st1" d="M85.9,143.2c31.6,0,57.3-25.7,57.3-57.3c0-31.6-25.7-57.3-57.3-57.3
		c-31.6,0-57.3,25.7-57.3,57.3C28.7,117.5,54.4,143.2,85.9,143.2z"/>
	<path id="XMLID_10_" class="st2" d="M60.5,76.5c5.2,0,9.4,4.2,9.4,9.4c0,5.2-4.2,9.4-9.4,9.4c-5.2,0-9.4-4.2-9.4-9.4
		C51.1,80.8,55.3,76.5,60.5,76.5L60.5,76.5z M111.4,76.5c5.2,0,9.4,4.2,9.4,9.4c0,5.2-4.2,9.4-9.4,9.4c-5.2,0-9.4-4.2-9.4-9.4
		C102,80.8,106.2,76.5,111.4,76.5z"/>
</g>
</svg>
