<?xml version="1.0" encoding="utf-8"?>
<!-- Generator: Adobe Illustrator 19.0.0, SVG Export Plug-In . SVG Version: 6.00 Build 0)  -->
<svg version="1.1" id="Layer_1" xmlns="http://www.w3.org/2000/svg" xmlns:xlink="http://www.w3.org/1999/xlink" x="0px" y="0px"
	 viewBox="0 0 58.4 274.2" style="enable-background:new 0 0 58.4 274.2;" xml:space="preserve">
<style type="text/css">
	.st0{fill:#FFFFFF;}
	.st1{fill-rule:evenodd;clip-rule:evenodd;fill:#CCCCCC;}
	.st2{fill-rule:evenodd;clip-rule:evenodd;fill:#FFFFFF;}
</style>
<g id="XMLID_15_">
	<rect id="XMLID_3_" x="24.6" class="st0" width="9.3" height="205.8"/>
	<g id="XMLID_2_">
		<path id="XMLID_7_" class="st1" d="M14,176.8h30.4c3.3,0,6,2.7,6,6V228c0,3.3-2.7,6-6,6H14c-3.3,0-6-2.7-6-6v-45.2
			C8.1,179.5,10.7,176.8,14,176.8z"/>
		<path id="XMLID_18_" class="st1" d="M15.7,217.1L15.7,217.1c2.5,0,4.6,2.1,4.6,4.6v48c0,2.5-2.1,4.6-4.6,4.6l0,0
			c-2.5,0-4.6-2.1-4.6-4.6v-48C11.1,219.1,13.2,217.1,15.7,217.1L15.7,217.1z M42.7,217.1L42.7,217.1c2.5,0,4.6,2.1,4.6,4.6v48
			c0,2.5-2.1,4.6-4.6,4.6l0,0c-2.5,0-4.6-2.1-4.6-4.6v-48C38.1,219.1,40.2,217.1,42.7,217.1z"/>
		<path id="XMLID_4_" class="st2" d="M8.1,191.3h42.3c4.4,0,8.1,3.6,8.1,8.1v41c0,4.4-3.6,8.1-8.1,8.1H8.1c-4.4,0-8.1-3.6-8.1-8.1
			v-41C0,194.9,3.6,191.3,8.1,191.3z"/>
	</g>
</g>
</svg>
